<?xml version="1.0" encoding="utf-8"?>
<svg version="1.1" id="Layer_1" x="0px" y="0px" viewBox="0 0 120 120" enable-background="new 0 0 120 120" xmlns="http://www.w3.org/2000/svg" xmlns:bx="https://boxy-svg.com">
  <defs>
    <bx:grid x="0" y="0" width="120.452" height="120.452"/>
  </defs>
  <ellipse style="fill: rgb(255, 255, 255); stroke: rgb(0, 0, 0);" cx="60" cy="60" rx="42.234" ry="42.234"/>
  <g transform="matrix(1, 0, 0, 1, 0.437504, -2.502874)">
    <polygon fill="#FFBB00" points="62.483,83.863 64.004,79.077 59.57,77.022 55.123,79.078 56.64,83.863 &#9;"/>
    <polygon fill="#7CBB00" points="71.855,72.115 59.563,77.019 47.271,72.115 50.355,81.282 59.563,77.025 68.805,81.297 &#9;"/>
    <g>
      <path fill="#1A171B" d="M78.617,84.432c-0.405,0-0.733,0.328-0.733,0.732v5.605c0,0.404,0.328,0.732,0.733,0.732 c0.404,0,0.732-0.328,0.732-0.732v-5.605C79.349,84.76,79.021,84.432,78.617,84.432z"/>
      <path fill="#1A171B" d="M40.51,84.432c-0.404,0-0.733,0.328-0.733,0.732v5.605c0,0.404,0.328,0.732,0.733,0.732 c0.405,0,0.733-0.328,0.733-0.732v-5.605C41.243,84.76,40.915,84.432,40.51,84.432z"/>
      <path fill="#1A171B" d="M82.306,73.394l-8.676-1.498c-0.509-0.088-1.006-0.239-1.476-0.449c-1.758-0.784-3.036-2.304-3.508-4.17 l-0.554-2.196c4.239-3.366,7.05-9.153,7.05-15.725c0-9.564-6.262-15.989-15.579-15.989c-9.317,0-15.578,6.425-15.578,15.989 c0,6.57,2.81,12.358,7.049,15.724l-0.554,2.197c-0.471,1.866-1.75,3.386-3.508,4.17c-0.471,0.21-0.968,0.361-1.477,0.449 l-8.677,1.498c-5.363,0.927-9.256,5.55-9.256,10.993v6.383c0,0.404,0.328,0.732,0.733,0.732c0.404,0,0.732-0.328,0.732-0.732 v-6.383c0-4.729,3.381-8.744,8.039-9.549l8.677-1.498c0.364-0.062,0.722-0.161,1.072-0.275l2.843,8.452 c0.066,0.196,0.214,0.356,0.405,0.439c0.093,0.04,0.19,0.06,0.29,0.06c0.104,0,0.209-0.022,0.307-0.068l4.014-1.856l1.2,3.782 l-1.903,6.694c-0.109,0.39,0.115,0.795,0.505,0.905c0.067,0.02,0.135,0.028,0.201,0.028c0.319,0,0.612-0.21,0.704-0.532 l1.812-6.375l4.734,0.001l1.814,6.374c0.11,0.39,0.514,0.614,0.905,0.504c0.39-0.11,0.615-0.517,0.504-0.905l-1.905-6.693 l1.203-3.783l4.047,1.869c0.098,0.046,0.202,0.068,0.307,0.068c0.1,0,0.198-0.019,0.291-0.06c0.192-0.082,0.34-0.243,0.405-0.442 l2.812-8.463c0.35,0.115,0.706,0.213,1.07,0.275l8.674,1.498c4.66,0.805,8.041,4.82,8.041,9.549v6.383 c0,0.404,0.328,0.732,0.732,0.732c0.405,0,0.733-0.328,0.733-0.732v-6.383C91.563,78.944,87.671,74.321,82.306,73.394z M45.451,49.356c0-8.823,5.539-14.523,14.112-14.523c8.573,0,14.112,5.7,14.112,14.523c0,9.564-6.33,17.348-14.112,17.348 C51.782,66.703,45.451,58.92,45.451,49.356z M51.9,67.635l0.414-1.641c2.168,1.383,4.632,2.174,7.249,2.174 c2.616,0,5.081-0.791,7.249-2.174l0.414,1.641c0.449,1.784,1.496,3.312,2.954,4.359L59.563,76.23l-10.616-4.234 C50.404,70.947,51.451,69.419,51.9,67.635z M48.471,73.383l9.246,3.688l-6.928,3.204L48.471,73.383z M61.947,83.129h-4.77 l-1.161-3.656l3.547-1.641l3.547,1.639L61.947,83.129z M68.368,80.287l-6.958-3.217l9.252-3.689L68.368,80.287z"/>
      <path fill="#1A171B" d="M28.297,61.424c0.404,0,0.732-0.329,0.732-0.733V40.737c0-0.404-0.328-0.732-0.732-0.732 c-0.405,0-0.733,0.328-0.733,0.732v19.954C27.563,61.095,27.891,61.424,28.297,61.424z"/>
      <path fill="#1A171B" d="M28.297,70.104c0.404,0,0.732-0.328,0.732-0.733v-3.794c0-0.404-0.328-0.732-0.732-0.732 c-0.405,0-0.733,0.328-0.733,0.732v3.794C27.563,69.776,27.891,70.104,28.297,70.104z"/>
      <path fill="#1A171B" d="M34.159,67.172c0.405,0,0.733-0.328,0.733-0.733V53.326c0-0.405-0.328-0.733-0.733-0.733 c-0.405,0-0.733,0.328-0.733,0.733v13.112C33.426,66.844,33.754,67.172,34.159,67.172z"/>
      <path fill="#1A171B" d="M34.159,49.172c0.405,0,0.733-0.328,0.733-0.732v-3.794c0-0.405-0.328-0.733-0.733-0.733 c-0.405,0-0.733,0.328-0.733,0.733v3.794C33.426,48.844,33.754,49.172,34.159,49.172z"/>
      <path fill="#1A171B" d="M90.83,36.096c-0.404,0-0.732,0.328-0.732,0.732v13.113c0,0.404,0.328,0.732,0.732,0.732 c0.405,0,0.733-0.328,0.733-0.732V36.828C91.563,36.424,91.235,36.096,90.83,36.096z"/>
      <path fill="#1A171B" d="M90.83,54.094c-0.404,0-0.732,0.328-0.732,0.733v17.475c0,0.405,0.328,0.733,0.732,0.733 c0.405,0,0.733-0.328,0.733-0.733V54.827C91.563,54.422,91.235,54.094,90.83,54.094z"/>
      <path fill="#1A171B" d="M84.968,67.172c0.404,0,0.732-0.328,0.732-0.733v-7.25c0-0.404-0.328-0.733-0.732-0.733 c-0.405,0-0.733,0.329-0.733,0.733v7.25C84.234,66.844,84.562,67.172,84.968,67.172z"/>
      <path fill="#1A171B" d="M84.968,55.035c0.404,0,0.732-0.328,0.732-0.733V41.714c0-0.404-0.328-0.733-0.732-0.733 c-0.405,0-0.733,0.328-0.733,0.733v12.589C84.234,54.707,84.562,55.035,84.968,55.035z"/>
    </g>
    <path fill="#00A1F1" d="M74.209,36.445l9.775-2.347l-24.428-5.861L35.13,34.098l9.771,2.346v5.996 c0,2.621,6.562,4.746,14.656,4.746c8.095,0,14.656-2.125,14.656-4.746c0-0.019-0.004-0.037-0.004-0.056V36.445z"/>
    <path fill="#FFBB00" d="M69.15,48.526c0,1.619-1.313,2.932-2.932,2.932c-1.618,0-2.931-1.312-2.931-2.932 c0-1.619,1.312-2.932,2.931-2.932C67.838,45.594,69.15,46.907,69.15,48.526z"/>
    <path fill="#1A171B" d="M84.154,33.385l-24.427-5.861c-0.112-0.027-0.229-0.027-0.342,0l-24.427,5.861 c-0.33,0.08-0.562,0.375-0.562,0.713c0,0.34,0.232,0.635,0.562,0.713l24.427,5.863c0.056,0.014,0.114,0.02,0.171,0.02 c0.057,0,0.115-0.006,0.171-0.02l5.759-1.383v5.645c-1.67,0.34-2.932,1.82-2.932,3.59c0,2.021,1.645,3.664,3.664,3.664 c2.021,0,3.664-1.644,3.664-3.664c0-1.77-1.26-3.25-2.931-3.59V38.94l17.202-4.129c0.33-0.078,0.562-0.373,0.562-0.713 C84.717,33.76,84.484,33.465,84.154,33.385z M68.418,48.526c0,1.213-0.986,2.199-2.199,2.199c-1.212,0-2.197-0.986-2.197-2.199 c0-1.212,0.985-2.198,2.197-2.198C67.431,46.327,68.418,47.314,68.418,48.526z M66.377,37.571l-6.389-4.657 c-0.327-0.238-0.786-0.167-1.024,0.16c-0.238,0.327-0.167,0.786,0.16,1.025l5.381,3.922l-4.949,1.188l-21.287-5.109l21.287-5.108 l21.287,5.108L66.377,37.571z"/>
  </g>
</svg>